<?xml version="1.0" standalone="no"?>
<!DOCTYPE svg PUBLIC "-//W3C//DTD SVG 20010904//EN"
 "http://www.w3.org/TR/2001/REC-SVG-20010904/DTD/svg10.dtd">
<svg version="1.0" xmlns="http://www.w3.org/2000/svg"
 width="700.000000pt" height="700.000000pt" viewBox="0 0 700.000000 700.000000"
 preserveAspectRatio="xMidYMid meet">
<metadata>
Created by potrace 1.11, written by Peter Selinger 2001-2013
</metadata>
<g transform="translate(0.000000,700.000000) scale(0.100000,-0.100000)"
fill="#000000" stroke="none">
<path d="M2065 5019 c-22 -4 -56 -10 -75 -13 -101 -16 -279 -95 -345 -152
-156 -133 -210 -226 -262 -449 -2 -11 -6 -69 -8 -130 -3 -98 0 -130 19 -224
30 -143 128 -293 260 -399 107 -87 170 -125 385 -235 231 -117 314 -170 374
-236 111 -124 85 -292 -59 -376 -153 -90 -435 -55 -742 90 -40 19 -75 35 -78
35 -2 0 -15 -24 -28 -52 -13 -29 -44 -96 -69 -148 -24 -52 -63 -134 -85 -182
l-41 -88 123 -59 c138 -68 265 -113 399 -142 124 -27 189 -34 342 -34 165 0
241 9 349 40 355 103 555 363 573 745 11 248 -49 420 -201 574 -107 109 -204
171 -486 309 -130 64 -245 124 -257 135 -12 10 -33 27 -48 38 -49 36 -87 109
-90 171 -6 105 45 198 136 248 51 28 61 30 159 29 145 -1 242 -26 454 -115 38
-16 70 -28 71 -27 11 17 215 430 215 436 0 15 -228 118 -334 152 -149 47 -287
67 -461 67 -82 0 -168 -3 -190 -8z"/>
<path d="M3509 5006 c-3 -2 -5 -2712 -2 -2722 3 -7 91 -10 278 -10 241 0 275
2 276 16 0 8 0 431 1 940 l0 925 37 -75 c20 -41 56 -118 80 -170 25 -52 68
-144 96 -205 29 -60 66 -139 82 -175 38 -82 349 -741 394 -835 18 -38 34 -72
34 -75 1 -4 45 -98 139 -295 l23 -50 360 -1 360 0 0 1366 0 1367 -276 0 c-218
0 -277 -3 -281 -13 -3 -7 -5 -435 -4 -951 l1 -937 -63 130 c-34 71 -79 165
-99 209 -21 44 -74 157 -118 250 -43 94 -126 271 -184 395 -58 124 -134 285
-169 359 -35 73 -64 135 -64 137 0 1 -25 56 -56 121 -31 65 -76 159 -99 209
l-42 91 -352 0 c-193 0 -352 -1 -352 -1z"/>
</g>
</svg>
