<svg width="282" height="196" viewBox="0 0 282 196" fill="none" xmlns="http://www.w3.org/2000/svg">
<g clip-path="url(#clip0)">
<path fill-rule="evenodd" clip-rule="evenodd" d="M2 195V173.474C1.99994 168.303 3.25286 163.21 5.65151 158.629C8.05016 154.048 11.5231 150.117 15.773 147.172C36.773 132.62 52.515 123.896 63 121C81.995 115.754 91.48 124.13 113 130C118.39 131.47 125.94 133.48 135.652 136.03C139.721 137.099 143.539 138.959 146.887 141.504C150.236 144.05 153.051 147.231 155.169 150.865C163.056 164.393 167 179.105 167 195" fill="#CEDBE0"/>
<path d="M2 195V173.474C1.99994 168.303 3.25286 163.21 5.65151 158.629C8.05016 154.048 11.5231 150.117 15.773 147.172C36.773 132.62 52.515 123.896 63 121C81.995 115.754 91.48 124.13 113 130C118.39 131.47 125.94 133.48 135.652 136.03C139.721 137.099 143.539 138.959 146.887 141.504C150.236 144.05 153.051 147.231 155.169 150.865C163.056 164.393 167 179.105 167 195" stroke="#29303C" stroke-width="4" stroke-linecap="round"/>
<path d="M36 162C44.667 165.333 49.667 176.333 51 195M2 195V173.474C1.99994 168.303 3.25286 163.21 5.65151 158.629C8.05016 154.048 11.5231 150.117 15.773 147.172C36.773 132.62 52.515 123.896 63 121C81.995 115.754 91.48 124.13 113 130C118.39 131.47 125.94 133.48 135.652 136.03C139.721 137.099 143.539 138.959 146.887 141.504C150.236 144.05 153.051 147.231 155.169 150.865C163.056 164.393 167 179.105 167 195H2Z" stroke="#01324B" stroke-width="4" stroke-linecap="round"/>
<path fill-rule="evenodd" clip-rule="evenodd" d="M65.321 116C54.089 118.667 49.464 124.667 51.446 134C53.681 144.526 70.276 148 78.206 167C78.206 167 89 146 101 149C110 146 116 160 121 160C131 128 112.44 113.333 65.321 116Z" fill="#EBF1F5" stroke="#01324B" stroke-width="4" stroke-linecap="round" stroke-linejoin="round"/>
<path fill-rule="evenodd" clip-rule="evenodd" d="M71 89L109 123C106.333 131 105.333 137.667 106 143C106.247 144.977 111 148 101 149C98 146 92.963 143.282 91 143C78.752 141.241 66.677 134.03 63 123L71 89Z" fill="#D4B6A3"/>
<g style="mix-blend-mode:multiply" opacity="0.372">
<path fill-rule="evenodd" clip-rule="evenodd" d="M71 89L109 123L106 134C106 134 98.918 134.432 90 132C75.333 128 69 113.667 71 89Z" fill="#D4B6A3"/>
</g>
<mask id="mask0" style="mask-type:alpha" maskUnits="userSpaceOnUse" x="53" y="19" width="80" height="105">
<path d="M95 122C116.245 126.25 130 119 130 81V73C130 64.583 133.862 59.653 132 52C127.44 33.264 111.237 19.794 94.909 19.794C71.989 19.794 53.409 40.523 53.409 69.794C53.409 78.61 54.019 99.687 57 107C58.457 110.574 73 89.972 73 94C73 109 85 120 95 122Z" fill="white"/>
</mask>
<g mask="url(#mask0)">
<path d="M95 122C116.245 126.25 130 119 130 81V73C130 64.583 133.862 59.653 132 52C127.44 33.264 111.237 19.794 94.909 19.794C71.989 19.794 53.409 40.523 53.409 69.794C53.409 78.61 54.019 99.687 57 107C58.457 110.574 73 89.972 73 94C73 109 85 120 95 122Z" fill="#D4B6A3"/>
<g style="mix-blend-mode:multiply" opacity="0.398">
<path fill-rule="evenodd" clip-rule="evenodd" d="M96.8635 92.1136C97.5343 95.9205 101.827 98.3469 106.45 97.5317C110.07 96.8928 112.82 94.4562 113.521 91.6004L122.105 90.0868C122.681 91.0721 123.526 91.8726 124.541 92.3945C125.556 92.9164 126.699 93.1381 127.835 93.0335C128.972 92.9288 130.055 92.5022 130.957 91.8038C131.86 91.1053 132.544 90.164 132.931 89.0901C133.317 88.0163 133.389 86.8545 133.139 85.7411C132.888 84.6277 132.325 83.6089 131.516 82.8042C130.707 81.9995 129.685 81.4423 128.57 81.1979C127.455 80.9535 126.294 81.0321 125.222 81.4245L125.219 81.4142L109.261 84.2271C107.714 83.616 105.894 83.4136 104.019 83.7444C99.3955 84.5595 96.1918 88.3066 96.8635 92.1136V92.1136Z" fill="#D4B6A3"/>
</g>
<g style="mix-blend-mode:multiply" opacity="0.598">
<path fill-rule="evenodd" clip-rule="evenodd" d="M136 53L128.606 51.656C126.47 51.2675 124.277 51.3179 122.161 51.804C113.664 53.757 107.611 50.822 104.001 43H133.001L136.001 53H136Z" fill="#D4B6A3"/>
</g>
</g>
<path d="M130 73C130 72.651 130.007 72.308 130.02 71.97C130.31 64.169 133.785 59.335 132 52C127.44 33.262 111.237 19.794 94.909 19.794C71.989 19.794 53.409 40.522 53.409 69.794C53.409 78.61 54.019 99.686 57 107C58.457 110.574 73 89.972 73 94C73 109 85 120 95 122C116.245 126.249 130 119 130 81" stroke="#01324B" stroke-width="4" stroke-linecap="round"/>
<path opacity="0.398" fill-rule="evenodd" clip-rule="evenodd" d="M88 76L88.696 81.57C89.051 84.4077 90.4639 87.0068 92.6524 88.8478C94.8408 90.6888 97.6434 91.636 100.5 91.5C103.548 91.355 106.47 90.2442 108.845 88.3284C111.219 86.4126 112.923 83.791 113.709 80.843L115 76L116.96 82.534C117.352 83.8426 118.18 84.978 119.305 85.7527C120.431 86.5273 121.787 86.8946 123.149 86.794C126.357 86.557 128.64 84.626 130 81V76.222C130 75.81 129.915 75.4025 129.751 75.0248C129.586 74.6471 129.346 74.3073 129.044 74.0266C128.743 73.7459 128.386 73.5303 127.998 73.3932C127.609 73.2562 127.197 73.2006 126.786 73.23" fill="#006699"/>
<path d="M71 71L88 76L88.696 81.57C89.051 84.4077 90.4639 87.0068 92.6524 88.8478C94.8408 90.6888 97.6434 91.636 100.5 91.5C103.548 91.355 106.47 90.2442 108.845 88.3284C111.219 86.4126 112.923 83.791 113.709 80.843L115 76L116.96 82.534C117.352 83.8426 118.18 84.978 119.305 85.7527C120.431 86.5273 121.787 86.8946 123.149 86.794C126.357 86.557 128.64 84.626 130 81" stroke="#01324B" stroke-width="4" stroke-linecap="round" stroke-linejoin="round"/>
<path d="M115 76L120 93" stroke="#183642" stroke-width="4" stroke-linecap="round"/>
<path d="M121 74C122.27 73.4525 123.621 73.1148 125 73C126.38 72.885 127.046 72.885 127 73M97 77C98.954 76.448 100.62 76.115 102 76C103.38 75.885 105.046 75.885 107 76L97 77Z" stroke="#01324B" stroke-width="4" stroke-linecap="round"/>
<path fill-rule="evenodd" clip-rule="evenodd" d="M101 76H106L105.36 80.476C105.255 81.214 104.923 81.9011 104.411 82.4427C103.899 82.9844 103.231 83.3537 102.5 83.5C102.214 83.5571 101.919 83.5455 101.639 83.4662C101.359 83.3869 101.102 83.2421 100.889 83.0439C100.675 82.8456 100.512 82.5996 100.413 82.3259C100.313 82.0523 100.28 81.7589 100.316 81.47L101 76ZM122 73H127L126.36 77.476C126.255 78.214 125.923 78.9011 125.411 79.4427C124.899 79.9844 124.231 80.3537 123.5 80.5C123.214 80.5571 122.919 80.5455 122.639 80.4662C122.359 80.3869 122.102 80.2421 121.889 80.0439C121.675 79.8456 121.512 79.5996 121.413 79.3259C121.313 79.0523 121.28 78.7589 121.316 78.47L122 73Z" fill="#01324B"/>
<path d="M88 67C94 63.667 100.667 63.667 108 67" stroke="#01324B" stroke-width="4" stroke-linecap="round"/>
<path d="M117 98L116 99" stroke="#183642" stroke-width="4" stroke-linecap="round"/>
<path d="M118 67C122 62.333 126 60.667 130 62" stroke="#01324B" stroke-width="4" stroke-linecap="round"/>
<path d="M104 108L113 107" stroke="#183642" stroke-width="4" stroke-linecap="round"/>
<path fill-rule="evenodd" clip-rule="evenodd" d="M70 94C53 94 57 62 70 71C80 69 87 62 90 50C86.667 47.333 84.667 42 84 34C85.333 49.333 95.333 57 114 57C105.333 51 101.667 44.333 103 37C105.733 45.787 112.4 49.12 123 47C126.333 46.333 131.333 46.667 138 48C133.333 21.333 118.333 8 93 8C88 8 79 9 71 17L67 19C50.333 25 42.667 38.333 44 59C44 59 21 93 40 111C42.64 113.64 50.7 119.378 64.182 115.946C66.021 115.478 70 94 70 94Z" fill="#1A4C66" stroke="#01324B" stroke-width="4" stroke-linecap="round" stroke-linejoin="round"/>
<path d="M71 71C81.667 69 88 61.667 90 49" stroke="#01324B" stroke-width="4" stroke-linecap="round"/>
<path d="M70 95L63 123C65 129.667 72.333 135.667 85 141C92.974 144.357 96 144 101 149C105.667 149 107.333 147 106 143" stroke="#01324B" stroke-width="4" stroke-linecap="round" stroke-linejoin="round"/>
<path d="M109 123L105.97 135.12C105.333 137.667 105.333 140.333 105.97 142.88L106 143" stroke="#183642" stroke-width="4" stroke-linecap="round"/>
<path d="M72 73C70 69 61 66 59.259 76.023C56.682 90.853 68 97 74 92" stroke="#01324B" stroke-width="4" stroke-linecap="round"/>
<g style="mix-blend-mode:multiply" opacity="0.599">
<path d="M65 78.023C67.667 77.356 69.667 79.356 71 84.023" stroke="#D4B6A3" stroke-width="4" stroke-linecap="round"/>
</g>
<path fill-rule="evenodd" clip-rule="evenodd" d="M121 200L151.71 145.095C152.405 143.853 153.418 142.819 154.645 142.099C155.872 141.38 157.269 141 158.692 141H191.18C191.877 141 192.563 141.183 193.168 141.529C193.773 141.876 194.277 142.375 194.63 142.977C194.983 143.579 195.172 144.262 195.179 144.96C195.186 145.657 195.011 146.344 194.67 146.953L165 200H121Z" fill="#ECF1F4"/>
<g style="mix-blend-mode:multiply" opacity="0.405">
<path fill-rule="evenodd" clip-rule="evenodd" d="M158.839 150.004L192.956 150.017L165 200H131L158.839 150.004Z" fill="#CEDBE0"/>
</g>
<path fill-rule="evenodd" clip-rule="evenodd" d="M121 200L151.71 145.095C152.405 143.853 153.418 142.819 154.645 142.099C155.872 141.38 157.269 141 158.692 141H191.18C191.877 141 192.563 141.183 193.168 141.529C193.773 141.876 194.277 142.375 194.63 142.977C194.983 143.579 195.172 144.262 195.179 144.96C195.186 145.657 195.011 146.344 194.67 146.953L165 200H121Z" stroke="#01324B" stroke-width="4" stroke-linecap="round"/>
<path d="M193 149H161.344C160.633 149 159.935 149.19 159.321 149.549C158.708 149.909 158.201 150.426 157.854 151.046L131 199" stroke="#01324B" stroke-width="4" stroke-linecap="round"/>
<path fill-rule="evenodd" clip-rule="evenodd" d="M93 200L111 175L112.633 161.937C112.87 160.042 113.777 158.294 115.19 157.009L120.814 151.896C121.743 151.052 122.913 150.52 124.16 150.376C125.406 150.231 126.667 150.481 127.764 151.091L133 154L136 152H151.468C151.822 152 152.17 152.094 152.475 152.272C152.781 152.45 153.034 152.707 153.208 153.015C153.383 153.323 153.472 153.671 153.468 154.025C153.463 154.379 153.365 154.726 153.183 155.029L152 157L141 160L133 169L147 164L161 155H169L171 158L166 161L164 172L161 176L158 188L144 195" fill="#D4B6A3"/>
<path d="M93 200L111 175L112.633 161.937C112.87 160.042 113.777 158.294 115.19 157.009L120.814 151.896C121.743 151.052 122.913 150.52 124.16 150.376C125.406 150.231 126.667 150.481 127.764 151.091L133 154" stroke="#01324B" stroke-width="4" stroke-linecap="round" stroke-linejoin="round"/>
<path d="M141 187L152 183L161.77 174.858C163.211 173.658 164.184 171.989 164.52 170.144L166 162M118 168L122.006 161.59C122.66 160.544 123.547 159.663 124.597 159.017L135.517 152.297C135.833 152.103 136.196 152 136.567 152H151.764C152.105 152 152.44 152.087 152.738 152.253C153.036 152.419 153.286 152.658 153.465 152.948C153.644 153.238 153.747 153.569 153.762 153.91C153.777 154.25 153.705 154.589 153.553 154.894L152 158L141 160L133 169L147 164L161 155H169L171 158L158 167L148 175L136 180L118 168ZM144 195L158 188L161 176L144 195Z" stroke="#01324B" stroke-width="4" stroke-linecap="round" stroke-linejoin="round"/>
<path fill-rule="evenodd" clip-rule="evenodd" d="M174 121L196.8 102H266C274.837 102 282 94.837 282 86V28C282 19.163 274.837 12 266 12H190C181.163 12 174 19.163 174 28V121Z" fill="#CEDBE0"/>
<path fill-rule="evenodd" clip-rule="evenodd" d="M257.974 51H222.056L221.47 51.57L214.824 58.186L205 68V98H266V59C266 54.582 262.406 51 257.974 51Z" fill="#EBF1F5"/>
<path fill-rule="evenodd" clip-rule="evenodd" d="M222 51V64.762C222 65.6208 221.659 66.4444 221.052 67.0516C220.444 67.6589 219.621 68 218.762 68H205L222 51Z" fill="#1A4C66"/>
<path d="M218 69C220.511 69 222.772 66.917 222.987 64.226L223 64V55H258C260.144 55 261.905 56.698 262 59V98H266V59C266 54.582 262.406 51 258 51H223C220.443 51 218.401 51.843 217 53L207 63C205.846 64.357 205 66.392 205 69V98H209V69H218ZM211 65L219 57V64C218.956 64.446 218.537 64.914 218.1 64.99L218 65H211Z" fill="#01324B"/>
<g style="mix-blend-mode:multiply">
<path d="M219 89C217.72 89 217 89.746 217 91V92C217 93.254 217.72 94 219 94H252C253.28 94 254 93.254 254 92V91C254 89.746 253.28 89 252 89H219Z" fill="#CEDBE0"/>
</g>
<path d="M240 76.5C240 75.1193 241.119 74 242.5 74C243.881 74 245 75.1193 245 76.5V81.5C245 82.8807 243.881 84 242.5 84C241.119 84 240 82.8807 240 81.5V76.5Z" fill="#01324B"/>
<path d="M225 76.5C225 75.1193 226.119 74 227.5 74C228.881 74 230 75.1193 230 76.5V81.5C230 82.8807 228.881 84 227.5 84C226.119 84 225 82.8807 225 81.5V76.5Z" fill="#01324B"/>
<path d="M206.039 36.392L207.412 43.256C207.522 43.7698 207.83 44.2195 208.27 44.5079C208.709 44.7963 209.244 44.9002 209.759 44.7972C210.275 44.6942 210.729 44.3925 211.023 43.9574C211.318 43.5223 211.43 42.9887 211.334 42.472L209.961 35.608C209.851 35.0942 209.543 34.6445 209.103 34.3561C208.664 34.0677 208.129 33.9638 207.614 34.0668C207.098 34.1698 206.644 34.4715 206.35 34.9066C206.055 35.3417 205.943 35.8753 206.039 36.392V36.392ZM208.981 51.101L209.039 51.392C209.149 51.9058 209.457 52.3555 209.897 52.6439C210.336 52.9323 210.871 53.0362 211.386 52.9332C211.902 52.8302 212.356 52.5285 212.65 52.0934C212.945 51.6583 213.057 51.1247 212.961 50.608L212.903 50.316C212.794 49.8005 212.487 49.3486 212.047 49.0587C211.607 48.7688 211.07 48.6641 210.554 48.7676C210.037 48.871 209.582 49.174 209.288 49.611C208.993 50.0479 208.883 50.5833 208.981 51.101V51.101ZM193.929 42.757L202.414 51.243C202.6 51.4287 202.82 51.5761 203.063 51.6766C203.306 51.7772 203.566 51.8289 203.828 51.8289C204.091 51.8289 204.351 51.7772 204.594 51.6766C204.837 51.5761 205.057 51.4288 205.243 51.243C205.429 51.0572 205.576 50.8367 205.677 50.594C205.777 50.3513 205.829 50.0912 205.829 49.8285C205.829 49.5658 205.777 49.3057 205.677 49.063C205.576 48.8203 205.429 48.5998 205.243 48.414L196.757 39.929C196.573 39.738 196.352 39.5856 196.108 39.4808C195.864 39.376 195.601 39.3208 195.336 39.3185C195.07 39.3162 194.807 39.3668 194.561 39.4674C194.315 39.5679 194.092 39.7164 193.904 39.9042C193.716 40.092 193.568 40.3153 193.467 40.5611C193.367 40.8069 193.316 41.0702 193.318 41.3358C193.321 41.6014 193.376 41.8638 193.481 42.1078C193.586 42.3518 193.738 42.5725 193.929 42.757V42.757ZM189.696 55.977L193.649 56.585C193.909 56.625 194.174 56.6134 194.429 56.551C194.684 56.4886 194.924 56.3766 195.136 56.2213C195.348 56.066 195.527 55.8704 195.663 55.6459C195.8 55.4213 195.891 55.1721 195.93 54.9125C195.97 54.6529 195.959 54.3879 195.897 54.1328C195.834 53.8776 195.722 53.6372 195.567 53.4254C195.411 53.2135 195.216 53.0343 194.991 52.898C194.767 52.7617 194.518 52.671 194.258 52.631L190.304 52.023C190.044 51.9831 189.779 51.9947 189.524 52.0571C189.269 52.1196 189.029 52.2317 188.817 52.3871C188.605 52.5424 188.426 52.738 188.29 52.9626C188.154 53.1872 188.063 53.4364 188.023 53.696C187.983 53.9556 187.995 54.2206 188.057 54.4757C188.12 54.7308 188.232 54.9712 188.387 55.183C188.542 55.3948 188.738 55.5739 188.963 55.7102C189.187 55.8464 189.436 55.9371 189.696 55.977V55.977ZM199.58 57.497L202.696 57.977C203.22 58.0576 203.755 57.9267 204.183 57.6129C204.611 57.2992 204.896 56.8283 204.977 56.304C205.058 55.7797 204.927 55.2448 204.613 54.817C204.299 54.3892 203.828 54.1036 203.304 54.023L200.188 53.543C199.664 53.4624 199.129 53.5933 198.701 53.9071C198.273 54.2208 197.988 54.6917 197.907 55.216C197.826 55.7403 197.957 56.2752 198.271 56.703C198.585 57.1308 199.056 57.4164 199.58 57.497V57.497Z" fill="#785BA7"/>
<path d="M190 12C181.163 12 174 19.163 174 28V121L196.8 102H266C274.837 102 282 94.837 282 86V28C282 19.163 274.837 12 266 12H190ZM190 16H266C272.525 16 277.834 21.209 277.996 27.695L278 28V86C278 92.525 272.791 97.834 266.305 97.996L266 98H195.352L178 112.46V28C178 21.475 183.209 16.166 189.695 16.004L190 16Z" fill="#01324B"/>
</g>
<defs>
<clipPath id="clip0">
<rect width="282" height="196" fill="white"/>
</clipPath>
</defs>
</svg>
